<?xml version="1.0" standalone="no"?>
<!DOCTYPE svg PUBLIC "-//W3C//DTD SVG 20010904//EN"
 "http://www.w3.org/TR/2001/REC-SVG-20010904/DTD/svg10.dtd">
<svg version="1.0" xmlns="http://www.w3.org/2000/svg"
 width="300.000000pt" height="108.000000pt" viewBox="0 0 300.000000 108.000000"
 preserveAspectRatio="xMidYMid meet">

<g transform="translate(0.000000,108.000000) scale(0.100000,-0.100000)"
fill="#000000" stroke="none">
<path d="M787 992 c-15 -16 -17 -53 -17 -319 0 -278 1 -301 18 -316 15 -14 42
-17 155 -17 129 0 137 1 151 22 17 24 23 143 7 152 -12 8 -28 -14 -33 -43 -3
-23 -5 -24 -130 -26 l-128 -3 0 249 0 249 130 0 130 0 0 -48 c0 -54 7 -67 27
-51 19 16 17 119 -3 147 -14 21 -22 22 -153 22 -121 0 -140 -2 -154 -18z m188
-12 c4 -6 -10 -10 -34 -10 -23 0 -41 5 -41 10 0 6 15 10 34 10 19 0 38 -4 41
-10z m-11 -573 c16 -25 -16 -56 -38 -37 -19 15 -20 32 -4 48 15 15 28 11 42
-11z"/>
<path d="M30 690 l0 -180 65 0 65 0 0 135 0 135 70 0 69 0 3 -132 3 -133 68
-3 67 -3 0 136 0 135 58 0 c32 0 63 -5 70 -12 8 -8 12 -53 12 -135 l0 -124 68
3 67 3 0 137 c0 136 0 137 -28 166 -45 47 -80 52 -381 52 l-276 0 0 -180z"/>
<path d="M1325 859 c-16 -5 -43 -20 -60 -33 -29 -23 -30 -27 -33 -123 -3 -88
-2 -101 18 -126 46 -58 64 -62 305 -62 l220 0 3 108 3 107 -136 0 -135 0 0
-35 0 -34 68 -3 c64 -3 67 -4 67 -28 l0 -25 -126 -3 c-154 -3 -159 0 -159 92
0 35 5 67 12 74 8 8 65 12 190 12 l178 0 0 45 0 45 -192 -1 c-106 0 -206 -5
-223 -10z"/>
<path d="M1860 825 l0 -45 188 -2 c182 -3 187 -4 190 -24 3 -21 0 -22 -162
-26 l-165 -4 -38 -30 c-63 -51 -54 -121 20 -161 27 -15 66 -18 255 -21 l222
-4 0 144 0 144 -27 26 c-46 42 -82 48 -289 48 l-194 0 0 -45z m380 -195 l0
-30 -129 0 c-106 0 -131 3 -142 16 -11 14 -10 18 6 30 14 10 53 14 142 14
l123 0 0 -30z"/>
<path d="M2494 851 c-96 -44 -98 -123 -4 -171 33 -17 59 -20 174 -20 147 0
166 -3 166 -30 0 -10 -7 -21 -16 -24 -9 -3 -92 -6 -185 -6 l-169 0 0 -46 0
-46 208 3 c184 4 211 6 237 23 85 55 88 118 8 167 -34 21 -53 24 -193 29 -147
5 -155 6 -155 25 0 19 8 20 188 23 l187 2 0 45 0 45 -202 0 c-177 0 -208 -3
-244 -19z"/>
<path d="M925 636 c-48 -48 -24 -126 40 -126 26 0 62 37 65 65 5 47 0 53 -67
82 -7 2 -24 -7 -38 -21z"/>
<path d="M1898 344 c-27 -8 -48 -17 -48 -19 0 -2 22 -2 48 2 69 8 84 -13 56
-82 -9 -25 37 29 55 63 26 49 -20 64 -111 36z"/>
<path d="M1638 208 c-61 -48 -82 -71 -104 -112 -15 -28 -15 -30 2 -43 20 -15
47 -12 127 14 50 15 66 30 20 19 -31 -8 -83 11 -83 31 0 26 29 71 67 102 56
47 33 37 -29 -11z"/>
</g>
</svg>
